<svg width="100" height="100" viewBox="0 0 100 100" fill="none" xmlns="http://www.w3.org/2000/svg">
<path fill-rule="evenodd" clip-rule="evenodd" d="M53.9 0.640289C51.3854 -0.21343 48.6146 -0.21343 46.1 0.640289L7.21112 13.8487C5.09275 14.5679 3.26724 15.8557 1.97863 17.5398C0.690028 19.2239 -0.000277929 21.2242 3.8147e-06 23.2732V50.2586C-0.000196448 58.6689 2.58539 66.913 7.46705 74.0673C12.3487 81.2215 19.3336 87.0032 27.6389 90.7644L46.2722 99.2027C47.4296 99.727 48.7059 100 50 100C51.2941 100 52.5704 99.727 53.7278 99.2027L72.3611 90.7644C80.6665 87.0032 87.6513 81.2215 92.533 74.0673C97.4146 66.913 100 58.6689 100 50.2586V23.2732C100 21.2242 99.31 19.2239 98.0214 17.5398C96.7328 15.8557 94.9073 14.5679 92.7889 13.8487L53.9 0.640289ZM50 10.0648L88.8889 23.2732V50.2586C88.8876 56.7993 86.8756 63.2104 83.0782 68.7738C79.2809 74.3371 73.8482 78.833 67.3889 81.7576L50 89.6423V10.0648Z" fill="white"/>
<path d="M30 47.5C30 70.9721 42.5 95.5 63 90C81.2254 90 96 70.9721 96 47.5C96 24.0279 81.2254 5 63 5C44.7746 5 30 24.0279 30 47.5Z" fill="white"/>
<path fill-rule="evenodd" clip-rule="evenodd" d="M53.127 5.57626C50.7884 4.80791 48.2116 4.80791 45.873 5.57626L9.70634 17.4638C7.73625 18.1111 6.03853 19.2701 4.84013 20.7858C3.64172 22.3015 2.99974 24.1018 3 25.9459V50.2328C2.99982 57.802 5.40442 65.2217 9.94436 71.6605C14.4843 78.0994 20.9802 83.3029 28.7042 86.688L46.0332 94.2825C47.1095 94.7543 48.2965 95 49.5 95C50.7035 95 51.8905 94.7543 52.9668 94.2825L70.2958 86.688C78.0198 83.3029 84.5157 78.0994 89.0556 71.6605C93.5956 65.2217 96.0002 57.802 96 50.2328V25.9459C96.0003 24.1018 95.3583 22.3015 94.1599 20.7858C92.9615 19.2701 91.2638 18.1111 89.2937 17.4638L53.127 5.57626ZM49.5 14.0583L85.6667 25.9459V50.2328C85.6655 56.1193 83.7943 61.8894 80.2628 66.8964C76.7312 71.9034 71.6789 75.9497 65.6717 78.5818L49.5 85.6781V14.0583Z" fill="white"/>
<path fill-rule="evenodd" clip-rule="evenodd" d="M45.873 5.57626C48.2116 4.80791 50.7884 4.80791 53.127 5.57626L89.2937 17.4638C91.2637 18.1111 92.9615 19.2701 94.1599 20.7858C95.3583 22.3015 96.0003 24.1018 96 25.9459V50.2328C96.0002 57.802 93.5956 65.2217 89.0556 71.6605C84.5157 78.0994 78.0198 83.3029 70.2958 86.688L52.9668 94.2825C51.8905 94.7543 50.7035 95 49.5 95C48.2965 95 47.1095 94.7543 46.0332 94.2825L28.7042 86.688C20.9802 83.3029 14.4843 78.0994 9.94436 71.6605C5.40442 65.2217 2.99981 57.802 3 50.2328V25.9459C2.99974 24.1018 3.64172 22.3015 4.84012 20.7858C6.03853 19.2701 7.73625 18.1111 9.70633 17.4638L45.873 5.57626ZM49.5 14.0583L13.3333 25.9459V50.2328C13.3345 56.1193 15.2057 61.8894 18.7372 66.8964C22.2688 71.9034 27.3211 75.9497 33.3283 78.5818L49.5 85.6781V14.0583Z" fill="#2B4EFF"/>
</svg>
